<svg xmlns="http://www.w3.org/2000/svg" viewBox="0 0 408.325 50.3"><defs><style>.a{fill:#fff;}.b{fill:#079b66;}.c{fill:#99999a;}.d{fill:#7a797b;}</style></defs><g transform="translate(-11.875 -21.6)"><path class="a" d="M108.6,64.5a16.679,16.679,0,0,1-6.7-1.3,15.509,15.509,0,0,1-5.4-3.6,17.739,17.739,0,0,1-3.7-5.5,17.355,17.355,0,0,1-1.4-6.9v-.1a16.916,16.916,0,0,1,5-12.3,16.164,16.164,0,0,1,5.5-3.7,17.809,17.809,0,0,1,7-1.3,22.584,22.584,0,0,1,4.7.5,14.9,14.9,0,0,1,6.9,3.6,21.8,21.8,0,0,1,2.5,2.8l-6.9,5.4a10.129,10.129,0,0,0-3.1-2.8,7.561,7.561,0,0,0-4.1-1,6.83,6.83,0,0,0-3.2.7,7.9,7.9,0,0,0-2.5,1.9,8.541,8.541,0,0,0-1.6,2.8,9.737,9.737,0,0,0-.6,3.4v.1a10.3,10.3,0,0,0,.6,3.5,8.541,8.541,0,0,0,1.6,2.8,7.9,7.9,0,0,0,2.5,1.9,6.83,6.83,0,0,0,3.2.7,8.017,8.017,0,0,0,2.3-.3,8.353,8.353,0,0,0,1.9-.8,19.225,19.225,0,0,0,1.7-1.3c.5-.5,1-1,1.5-1.6l6.9,4.9a25.466,25.466,0,0,1-2.6,3,15.742,15.742,0,0,1-3.2,2.4,15.925,15.925,0,0,1-4,1.6A22.12,22.12,0,0,1,108.6,64.5Z"/><path class="a" d="M147.2,64.5a18.348,18.348,0,0,1-7.1-1.4,17.013,17.013,0,0,1-5.7-3.7,16.164,16.164,0,0,1-3.7-5.5,16.747,16.747,0,0,1-1.4-6.7v-.1a16.747,16.747,0,0,1,1.4-6.7,17.48,17.48,0,0,1,3.8-5.5,17.013,17.013,0,0,1,5.7-3.7,18.724,18.724,0,0,1,7.1-1.4,18.348,18.348,0,0,1,7.1,1.4,17.013,17.013,0,0,1,5.7,3.7,17.194,17.194,0,0,1,3.7,5.5,16.747,16.747,0,0,1,1.4,6.7v.1a16.747,16.747,0,0,1-1.4,6.7,17.48,17.48,0,0,1-3.8,5.5,17.013,17.013,0,0,1-5.7,3.7A18.724,18.724,0,0,1,147.2,64.5Zm0-8.3a8.116,8.116,0,0,0,3.5-.7,10.148,10.148,0,0,0,2.7-1.9,8.751,8.751,0,0,0,1.7-2.8,9.737,9.737,0,0,0,.6-3.4v-.1a9.737,9.737,0,0,0-.6-3.4,7.5,7.5,0,0,0-1.8-2.8,10.518,10.518,0,0,0-2.7-2,7.824,7.824,0,0,0-3.5-.7,8.116,8.116,0,0,0-3.5.7,10.148,10.148,0,0,0-2.7,1.9,8.751,8.751,0,0,0-1.7,2.8,9.737,9.737,0,0,0-.6,3.4v.1a9.737,9.737,0,0,0,.6,3.4,8.751,8.751,0,0,0,1.7,2.8,7.936,7.936,0,0,0,2.7,2A8.888,8.888,0,0,0,147.2,56.2Z"/><path class="a" d="M173.1,30.6h8.6l13.7,17.6V30.6h9.1V63.8h-8.1L182.2,45.6V63.8h-9.1Z"/><path class="a" d="M229.5,64.5a16.679,16.679,0,0,1-6.7-1.3,15.509,15.509,0,0,1-5.4-3.6,17.739,17.739,0,0,1-3.7-5.5,17.356,17.356,0,0,1-1.4-6.9v-.1a17.135,17.135,0,0,1,10.5-16,17.809,17.809,0,0,1,7-1.3,22.584,22.584,0,0,1,4.7.5,14.9,14.9,0,0,1,6.9,3.6,21.8,21.8,0,0,1,2.5,2.8L237,42.1a11.411,11.411,0,0,0-3.1-2.8,7.561,7.561,0,0,0-4.1-1,6.83,6.83,0,0,0-3.2.7,7.9,7.9,0,0,0-2.5,1.9,8.541,8.541,0,0,0-1.6,2.8,9.737,9.737,0,0,0-.6,3.4v.1a10.3,10.3,0,0,0,.6,3.5,8.54,8.54,0,0,0,1.6,2.8,7.9,7.9,0,0,0,2.5,1.9,6.83,6.83,0,0,0,3.2.7,8.017,8.017,0,0,0,2.3-.3A8.353,8.353,0,0,0,234,55a19.223,19.223,0,0,0,1.7-1.3c.5-.5,1-1,1.5-1.6l6.9,4.9a25.465,25.465,0,0,1-2.6,3,15.742,15.742,0,0,1-3.2,2.4,15.925,15.925,0,0,1-4,1.6A21.435,21.435,0,0,1,229.5,64.5Z"/><path class="a" d="M251.4,30.6H278v7.8H260.4v5h16v7.3h-16V56h17.9v7.8H251.4Z"/><path class="a" d="M286.2,30.6h14.2a20.119,20.119,0,0,1,5.7.8,12.292,12.292,0,0,1,4.4,2.3,10.375,10.375,0,0,1,2.8,3.7,12.981,12.981,0,0,1,1,4.9v.1a12.065,12.065,0,0,1-1.1,5.2,9.831,9.831,0,0,1-3,3.7,13.685,13.685,0,0,1-4.5,2.3,21.21,21.21,0,0,1-5.7.8h-4.6v9.5h-9.2V30.6Zm13.6,16.5a6.052,6.052,0,0,0,3.9-1.2,4.012,4.012,0,0,0,1.4-3.2v-.1a4.223,4.223,0,0,0-1.4-3.3,6.244,6.244,0,0,0-3.9-1.1h-4.3V47h4.3Z"/><path class="a" d="M329.4,38.6h-10V30.5h29.2v8.1h-10V63.8h-9.2Z"/><path class="b" d="M367.9,64.5a19.214,19.214,0,0,1-8.3-1.6,19.5,19.5,0,0,1-5.9-4.3l5.8-5.8a15.7,15.7,0,0,0,3.7,2.8,8.679,8.679,0,0,0,4.2,1,4.771,4.771,0,0,0,3.1-.9,2.767,2.767,0,0,0,1.1-2.4v-.1a2.851,2.851,0,0,0-1.4-2.5,7.406,7.406,0,0,0-4-.9h-3.9L361,45l7.6-6.9H356V30.6h24v6.6L372.1,44a15.978,15.978,0,0,1,3.3,1.1,10.653,10.653,0,0,1,2.8,1.9,10.148,10.148,0,0,1,1.9,2.7,10.161,10.161,0,0,1,.7,3.7v.1a10.013,10.013,0,0,1-1,4.6,9.188,9.188,0,0,1-2.7,3.5,10.776,10.776,0,0,1-4.1,2.2A20.929,20.929,0,0,1,367.9,64.5Z"/><path class="b" d="M388.5,30.6h12.8a24.9,24.9,0,0,1,8,1.2,16.335,16.335,0,0,1,5.9,3.4,15.944,15.944,0,0,1,3.7,5.2,17.643,17.643,0,0,1,1.3,6.6v.1a16.68,16.68,0,0,1-1.3,6.7,16.351,16.351,0,0,1-3.7,5.3,16.128,16.128,0,0,1-6,3.5,24.839,24.839,0,0,1-8,1.3H388.6V30.6Zm13,25a9.673,9.673,0,0,0,6.7-2.2,7.716,7.716,0,0,0,2.5-6.2v-.1a7.716,7.716,0,0,0-2.5-6.2,9.673,9.673,0,0,0-6.7-2.2h-3.8V55.6Z"/><path class="c" d="M74,44.9l-1.7-1L48.9,57.4a11.136,11.136,0,0,1-5.4,1.4,11.431,11.431,0,0,1-5.4-1.4L14.7,43.9l-1.7,1a2.167,2.167,0,0,0,0,3.8L38.7,63.5a9.123,9.123,0,0,0,4.8,1.3,9.376,9.376,0,0,0,4.8-1.3L74,48.7A2.244,2.244,0,0,0,74,44.9Z"/><path class="b" d="M74,52l-1.8-1L48.9,64.5a11.136,11.136,0,0,1-5.4,1.4,11.431,11.431,0,0,1-5.4-1.4L14.8,51,13,52a2.167,2.167,0,0,0,0,3.8L38.7,70.6a9.123,9.123,0,0,0,4.8,1.3,9.376,9.376,0,0,0,4.8-1.3L74,55.8A2.244,2.244,0,0,0,74,52Z"/><path class="d" d="M13,41.6,38.7,56.4a9.123,9.123,0,0,0,4.8,1.3,9.376,9.376,0,0,0,4.8-1.3L74,41.6a2.167,2.167,0,0,0,0-3.8L48.3,22.9a9.123,9.123,0,0,0-4.8-1.3,9.376,9.376,0,0,0-4.8,1.3L13,37.8A2.244,2.244,0,0,0,13,41.6Z"/><path class="a" d="M23.8,42l15.4,8.9A8.118,8.118,0,0,0,43.5,52a9.472,9.472,0,0,0,4.3-1.1L63.1,42a2.606,2.606,0,0,0,1.3-2.2,2.485,2.485,0,0,0-1.3-2.2l-5.5-3.2-5,3,4.1,2.4L45.1,46.5a3.435,3.435,0,0,1-3.4,0L30.1,39.8l11.6-6.7a3.435,3.435,0,0,1,3.4,0l2.8,1.6,5-3-5.2-3a8.59,8.59,0,0,0-8.5,0L23.8,37.6a2.512,2.512,0,0,0,0,4.4Z"/></g></svg>